/* XPM */
static char * windows_xpm[] = {
"20 20 3 1",
" 	c None",
".	c #474B55",
"+	c #6AA8E9",
"....................",
"....................",
"....................",
"....................",
"....................",
"...++++++++.........",
"...++++++++.........",
"...++++++++.........",
"...++++++++.........",
"...+++++............",
".........++++++++...",
".........++++++++...",
".........++++++++...",
".........++++++++...",
".........++++++++...",
"....................",
"....................",
"....................",
"....................",
"...................."};
