/* XPM */
static char * colon_xpm[] = {
"4 20 3 1",
" 	c None",
".	c #474B55",
"+	c #D3DAE3",
"....",
"....",
"....",
"....",
"....",
"....",
".++.",
".++.",
"....",
"....",
"....",
".++.",
".++.",
"....",
"....",
"....",
"....",
"....",
"....",
"...."};
