/* XPM */
static char * n3_xpm[] = {
"10 20 3 1",
" 	c None",
".	c #474B55",
"+	c #D3DAE3",
"..........",
"..........",
"..........",
"...+++++..",
"....+++.+.",
".......++.",
".......++.",
".......++.",
"....+++.+.",
"...+++++..",
"........+.",
".......++.",
".......++.",
".......++.",
"....+++.+.",
"...+++++..",
"..........",
"..........",
"..........",
".........."};
