/* XPM */
static char * slash_xpm[] = {
"10 20 9 1",
" 	c None",
".	c #474B55",
"+	c #363636",
"@	c #D3DAE3",
"#	c #6D6D6D",
"$	c #686868",
"%	c #313131",
"&	c #333333",
"*	c #6A6A6A",
"..........",
"..........",
"..........",
"..........",
"..........",
".....+@...",
".....#$...",
".....@%...",
"....&@....",
"....**....",
"....@&....",
"...%@.....",
"...$#.....",
"...@+.....",
"..........",
"..........",
"..........",
"..........",
"..........",
".........."};
