/* XPM */
static char * suspend_16x16_xpm[] = {
"16 16 4 1",
" 	c None",
".	c #F5F6F7",
"+	c #474B55",
"@	c #E8ECEF",
"     ......     ",
"   ..++++++..   ",
"  ..++++++++..  ",
" ..++++++++++@. ",
" .+.....++++++. ",
".+++++..+++++++.",
".++++..+.....++.",
".+++..+++++..++.",
".++..+++++..+++.",
".++.....+..++++.",
".+++++++..+++++.",
" .++++++.....+. ",
" .@++++++++++@. ",
"  .@++++++++..  ",
"   ..++++++..   ",
"     ......     "};
